<svg width="21" height="21" viewBox="0 0 21 21" fill="none" xmlns="http://www.w3.org/2000/svg">
<path d="M0.19923 0.411587L0.297618 0.297618C0.658371 -0.0631352 1.22288 -0.0959222 1.62067 0.19923L1.73464 0.297618L10.5 9.06252L19.2654 0.297618C19.6622 -0.099201 20.3055 -0.099201 20.7024 0.297618C21.0992 0.694437 21.0992 1.33782 20.7024 1.73464L11.9375 10.5L20.7024 19.2654C21.0632 19.6261 21.0959 20.1906 20.8007 20.5884L20.7024 20.7024C20.3417 21.0632 19.7771 21.0959 19.3794 20.8007L19.2654 20.7024L10.5 11.9375L1.73464 20.7024C1.33782 21.0992 0.694437 21.0992 0.297618 20.7024C-0.099201 20.3055 -0.099201 19.6622 0.297618 19.2654L9.06252 10.5L0.297618 1.73464C-0.0631352 1.37389 -0.0959222 0.809382 0.19923 0.411587Z" fill="white"/>
</svg>
