<svg width="28" height="20" viewBox="0 0 28 20" fill="none" xmlns="http://www.w3.org/2000/svg">
<path d="M1.67006 17.9994H26.3367C26.8891 17.9994 27.3367 18.4472 27.3367 18.9994C27.3367 19.5057 26.9605 19.9241 26.4724 19.9902L26.3367 19.9994H1.67006C1.11777 19.9994 0.670062 19.5517 0.670062 18.9994C0.670062 18.4932 1.04626 18.0748 1.53437 18.0085L1.67006 17.9994ZM1.67006 9.33677H26.3367C26.8891 9.33677 27.3367 9.7845 27.3367 10.3368C27.3367 10.843 26.9605 11.2614 26.4724 11.3277L26.3367 11.3368H1.67006C1.11777 11.3368 0.670062 10.889 0.670062 10.3368C0.670062 9.8305 1.04626 9.4121 1.53437 9.34584L1.67006 9.33677ZM1.66891 0.67041H26.3356C26.8879 0.67041 27.3356 1.11813 27.3356 1.67041C27.3356 2.17668 26.9593 2.59506 26.4713 2.66128L26.3356 2.67041H1.66891C1.11662 2.67041 0.668915 2.22269 0.668915 1.67041C0.668915 1.16414 1.04511 0.745757 1.53322 0.679543L1.66891 0.67041Z" fill="white"/>
</svg>
