<svg width="28" height="20" viewBox="0 0 28 20" fill="none" xmlns="http://www.w3.org/2000/svg">
<path d="M1.67003 17.9999H26.3366C26.889 17.9999 27.3366 18.4477 27.3366 18.9999C27.3366 19.5062 26.9605 19.9246 26.4724 19.9907L26.3366 19.9999H1.67003C1.11774 19.9999 0.670031 19.5522 0.670031 18.9999C0.670031 18.4937 1.04623 18.0753 1.53434 18.009L1.67003 17.9999ZM1.67003 9.33726H26.3366C26.889 9.33726 27.3366 9.78499 27.3366 10.3373C27.3366 10.8435 26.9605 11.2619 26.4724 11.3282L26.3366 11.3373H1.67003C1.11774 11.3373 0.670031 10.8895 0.670031 10.3373C0.670031 9.83099 1.04623 9.41259 1.53434 9.34632L1.67003 9.33726ZM1.66888 0.670898H26.3356C26.8878 0.670898 27.3356 1.11862 27.3356 1.6709C27.3356 2.17717 26.9593 2.59555 26.4713 2.66176L26.3356 2.6709H1.66888C1.11659 2.6709 0.668884 2.22318 0.668884 1.6709C0.668884 1.16463 1.04508 0.746245 1.53319 0.680031L1.66888 0.670898Z" fill="white"/>
</svg>
