<svg width="28" height="20" viewBox="0 0 28 20" fill="none" xmlns="http://www.w3.org/2000/svg">
<path d="M1.67009 17.9996H26.3367C26.8891 17.9996 27.3367 18.4473 27.3367 18.9996C27.3367 19.5059 26.9606 19.9243 26.4724 19.9904L26.3367 19.9996H1.67009C1.1178 19.9996 0.670092 19.5519 0.670092 18.9996C0.670092 18.4933 1.04629 18.0749 1.5344 18.0087L1.67009 17.9996ZM1.67009 9.33692H26.3367C26.8891 9.33692 27.3367 9.78466 27.3367 10.3369C27.3367 10.8432 26.9606 11.2616 26.4724 11.3279L26.3367 11.3369H1.67009C1.1178 11.3369 0.670092 10.8892 0.670092 10.3369C0.670092 9.83066 1.04629 9.41225 1.5344 9.34599L1.67009 9.33692ZM1.66895 0.670563H26.3356C26.8879 0.670563 27.3356 1.11828 27.3356 1.67056C27.3356 2.17683 26.9594 2.59522 26.4714 2.66143L26.3356 2.67056H1.66895C1.11665 2.67056 0.668945 2.22284 0.668945 1.67056C0.668945 1.1643 1.04515 0.745909 1.53325 0.679696L1.66895 0.670563Z" fill="white"/>
</svg>
