<svg width="28" height="20" viewBox="0 0 28 20" fill="none" xmlns="http://www.w3.org/2000/svg">
<path d="M1.67006 17.9996H26.3367C26.8891 17.9996 27.3367 18.4473 27.3367 18.9996C27.3367 19.5059 26.9605 19.9243 26.4724 19.9904L26.3367 19.9996H1.67006C1.11777 19.9996 0.670062 19.5519 0.670062 18.9996C0.670062 18.4933 1.04626 18.0749 1.53437 18.0087L1.67006 17.9996ZM1.67006 9.33692H26.3367C26.8891 9.33692 27.3367 9.78466 27.3367 10.3369C27.3367 10.8432 26.9605 11.2616 26.4724 11.3279L26.3367 11.3369H1.67006C1.11777 11.3369 0.670062 10.8892 0.670062 10.3369C0.670062 9.83066 1.04626 9.41225 1.53437 9.34599L1.67006 9.33692ZM1.66891 0.670563H26.3356C26.8879 0.670563 27.3356 1.11828 27.3356 1.67056C27.3356 2.17683 26.9593 2.59522 26.4713 2.66143L26.3356 2.67056H1.66891C1.11662 2.67056 0.668915 2.22284 0.668915 1.67056C0.668915 1.1643 1.04511 0.745909 1.53322 0.679696L1.66891 0.670563Z" fill="white"/>
</svg>
