<svg width="28" height="20" viewBox="0 0 28 20" fill="none" xmlns="http://www.w3.org/2000/svg">
<path d="M1.67009 17.9994H26.3367C26.8891 17.9994 27.3367 18.4472 27.3367 18.9994C27.3367 19.5057 26.9606 19.9241 26.4724 19.9902L26.3367 19.9994H1.67009C1.1178 19.9994 0.670092 19.5517 0.670092 18.9994C0.670092 18.4932 1.04629 18.0748 1.5344 18.0085L1.67009 17.9994ZM1.67009 9.33677H26.3367C26.8891 9.33677 27.3367 9.7845 27.3367 10.3368C27.3367 10.843 26.9606 11.2614 26.4724 11.3277L26.3367 11.3368H1.67009C1.1178 11.3368 0.670092 10.889 0.670092 10.3368C0.670092 9.8305 1.04629 9.4121 1.5344 9.34584L1.67009 9.33677ZM1.66895 0.67041H26.3356C26.8879 0.67041 27.3356 1.11813 27.3356 1.67041C27.3356 2.17668 26.9594 2.59506 26.4714 2.66128L26.3356 2.67041H1.66895C1.11665 2.67041 0.668945 2.22269 0.668945 1.67041C0.668945 1.16414 1.04515 0.745757 1.53325 0.679543L1.66895 0.67041Z" fill="white"/>
</svg>
