<svg width="28" height="20" viewBox="0 0 28 20" fill="none" xmlns="http://www.w3.org/2000/svg">
<path d="M1.67003 17.9996H26.3366C26.889 17.9996 27.3366 18.4473 27.3366 18.9996C27.3366 19.5059 26.9605 19.9243 26.4724 19.9904L26.3366 19.9996H1.67003C1.11774 19.9996 0.670031 19.5519 0.670031 18.9996C0.670031 18.4933 1.04623 18.0749 1.53434 18.0087L1.67003 17.9996ZM1.67003 9.33692H26.3366C26.889 9.33692 27.3366 9.78466 27.3366 10.3369C27.3366 10.8432 26.9605 11.2616 26.4724 11.3279L26.3366 11.3369H1.67003C1.11774 11.3369 0.670031 10.8892 0.670031 10.3369C0.670031 9.83066 1.04623 9.41225 1.53434 9.34599L1.67003 9.33692ZM1.66888 0.670563H26.3356C26.8878 0.670563 27.3356 1.11828 27.3356 1.67056C27.3356 2.17683 26.9593 2.59522 26.4713 2.66143L26.3356 2.67056H1.66888C1.11659 2.67056 0.668884 2.22284 0.668884 1.67056C0.668884 1.1643 1.04508 0.745909 1.53319 0.679696L1.66888 0.670563Z" fill="white"/>
</svg>
