<svg width="28" height="20" viewBox="0 0 28 20" fill="none" xmlns="http://www.w3.org/2000/svg">
<path d="M1.67009 17.9997H26.3367C26.8891 17.9997 27.3367 18.4474 27.3367 18.9997C27.3367 19.5059 26.9606 19.9243 26.4724 19.9905L26.3367 19.9997H1.67009C1.1178 19.9997 0.670092 19.5519 0.670092 18.9997C0.670092 18.4934 1.04629 18.075 1.5344 18.0087L1.67009 17.9997ZM1.67009 9.33701H26.3367C26.8891 9.33701 27.3367 9.78475 27.3367 10.337C27.3367 10.8433 26.9606 11.2617 26.4724 11.3279L26.3367 11.337H1.67009C1.1178 11.337 0.670092 10.8893 0.670092 10.337C0.670092 9.83075 1.04629 9.41235 1.5344 9.34608L1.67009 9.33701ZM1.66895 0.670654H26.3356C26.8879 0.670654 27.3356 1.11837 27.3356 1.67065C27.3356 2.17692 26.9594 2.59531 26.4714 2.66152L26.3356 2.67065H1.66895C1.11665 2.67065 0.668945 2.22293 0.668945 1.67065C0.668945 1.16439 1.04515 0.746001 1.53325 0.679787L1.66895 0.670654Z" fill="white"/>
</svg>
