<svg width="28" height="20" viewBox="0 0 28 20" fill="none" xmlns="http://www.w3.org/2000/svg">
<path d="M1.67006 17.9997H26.3367C26.8891 17.9997 27.3367 18.4474 27.3367 18.9997C27.3367 19.5059 26.9605 19.9243 26.4724 19.9905L26.3367 19.9997H1.67006C1.11777 19.9997 0.670062 19.5519 0.670062 18.9997C0.670062 18.4934 1.04626 18.075 1.53437 18.0087L1.67006 17.9997ZM1.67006 9.33701H26.3367C26.8891 9.33701 27.3367 9.78475 27.3367 10.337C27.3367 10.8433 26.9605 11.2617 26.4724 11.3279L26.3367 11.337H1.67006C1.11777 11.337 0.670062 10.8893 0.670062 10.337C0.670062 9.83075 1.04626 9.41235 1.53437 9.34608L1.67006 9.33701ZM1.66891 0.670654H26.3356C26.8879 0.670654 27.3356 1.11837 27.3356 1.67065C27.3356 2.17692 26.9593 2.59531 26.4713 2.66152L26.3356 2.67065H1.66891C1.11662 2.67065 0.668915 2.22293 0.668915 1.67065C0.668915 1.16439 1.04511 0.746001 1.53322 0.679787L1.66891 0.670654Z" fill="white"/>
</svg>
