<svg width="28" height="20" viewBox="0 0 28 20" fill="none" xmlns="http://www.w3.org/2000/svg">
<path d="M1.67003 17.9994H26.3366C26.889 17.9994 27.3366 18.4472 27.3366 18.9994C27.3366 19.5057 26.9605 19.9241 26.4724 19.9902L26.3366 19.9994H1.67003C1.11774 19.9994 0.670031 19.5517 0.670031 18.9994C0.670031 18.4932 1.04623 18.0748 1.53434 18.0085L1.67003 17.9994ZM1.67003 9.33677H26.3366C26.889 9.33677 27.3366 9.7845 27.3366 10.3368C27.3366 10.843 26.9605 11.2614 26.4724 11.3277L26.3366 11.3368H1.67003C1.11774 11.3368 0.670031 10.889 0.670031 10.3368C0.670031 9.8305 1.04623 9.4121 1.53434 9.34584L1.67003 9.33677ZM1.66888 0.67041H26.3356C26.8878 0.67041 27.3356 1.11813 27.3356 1.67041C27.3356 2.17668 26.9593 2.59506 26.4713 2.66128L26.3356 2.67041H1.66888C1.11659 2.67041 0.668884 2.22269 0.668884 1.67041C0.668884 1.16414 1.04508 0.745757 1.53319 0.679543L1.66888 0.67041Z" fill="white"/>
</svg>
