<svg width="28" height="20" viewBox="0 0 28 20" fill="none" xmlns="http://www.w3.org/2000/svg">
<path d="M1.67006 17.9999H26.3367C26.8891 17.9999 27.3367 18.4477 27.3367 18.9999C27.3367 19.5062 26.9605 19.9246 26.4724 19.9907L26.3367 19.9999H1.67006C1.11777 19.9999 0.670062 19.5522 0.670062 18.9999C0.670062 18.4937 1.04626 18.0753 1.53437 18.009L1.67006 17.9999ZM1.67006 9.33726H26.3367C26.8891 9.33726 27.3367 9.78499 27.3367 10.3373C27.3367 10.8435 26.9605 11.2619 26.4724 11.3282L26.3367 11.3373H1.67006C1.11777 11.3373 0.670062 10.8895 0.670062 10.3373C0.670062 9.83099 1.04626 9.41259 1.53437 9.34632L1.67006 9.33726ZM1.66891 0.670898H26.3356C26.8879 0.670898 27.3356 1.11862 27.3356 1.6709C27.3356 2.17717 26.9593 2.59555 26.4713 2.66176L26.3356 2.6709H1.66891C1.11662 2.6709 0.668915 2.22318 0.668915 1.6709C0.668915 1.16463 1.04511 0.746245 1.53322 0.680031L1.66891 0.670898Z" fill="white"/>
</svg>
